<svg xmlns="http://www.w3.org/2000/svg" viewBox="0 0 42.62 42.65"><defs><style>.cls-1{fill:#fff;}</style></defs><title>DreamUpLogo</title><g id="Layer_2" data-name="Layer 2"><g id="Layer_1-2" data-name="Layer 1"><path class="cls-1" d="M39.62,3V9.59a6.52,6.52,0,0,1-.38,2.2,6.64,6.64,0,0,1-4,4,6.53,6.53,0,0,1-4.39,0,6.64,6.64,0,0,1-4-4,6.52,6.52,0,0,1-.38-2.2V3H39.62m3-3H23.43V9.59a9.59,9.59,0,0,0,18.64,3.2,9.39,9.39,0,0,0,.55-3.2V0Z"/><path class="cls-1" d="M38.23,4.39v5.2a5.14,5.14,0,0,1-.3,1.74,5.26,5.26,0,0,1-3.17,3.17,5.07,5.07,0,0,1-1.73.29,5.13,5.13,0,0,1-1.74-.29,5.29,5.29,0,0,1-3.17-3.17,5.13,5.13,0,0,1-.29-1.74V4.39h10.4m3-3H24.83v8.2a8.21,8.21,0,0,0,.46,2.74,8.3,8.3,0,0,0,5,5,8.36,8.36,0,0,0,5.47,0,8.3,8.3,0,0,0,5-5,8.22,8.22,0,0,0,.47-2.74V1.39Z"/><path class="cls-1" d="M36.83,5.79v3.8a3.85,3.85,0,0,1-.21,1.27A3.76,3.76,0,0,1,33,13.4a3.85,3.85,0,0,1-1.27-.21,3.94,3.94,0,0,1-2.33-2.33,3.85,3.85,0,0,1-.21-1.27V5.79h7.61m3-3H26.22v6.8a6.69,6.69,0,0,0,.39,2.27A6.83,6.83,0,0,0,30.76,16,6.69,6.69,0,0,0,33,16.4,6.77,6.77,0,0,0,35.3,16a6.85,6.85,0,0,0,4.15-4.15,6.93,6.93,0,0,0,.38-2.27V2.79Z"/><path class="cls-1" d="M35.44,7.18V9.59a2.42,2.42,0,0,1-1.61,2.28A2.4,2.4,0,0,1,33,12a2.42,2.42,0,0,1-2.42-2.42V7.18h4.83m3-3H27.61V9.59a5.55,5.55,0,0,0,.31,1.81,5.45,5.45,0,0,0,3.3,3.3A5.55,5.55,0,0,0,33,15a5.42,5.42,0,0,0,5.1-3.61,5.3,5.3,0,0,0,.31-1.81V4.18Z"/><path class="cls-1" d="M34.05,8.57v1a.93.93,0,0,1-.06.34,1.07,1.07,0,0,1-.62.63,1,1,0,0,1-.34,0,1,1,0,0,1-.35,0,1.1,1.1,0,0,1-.62-.63A.93.93,0,0,1,32,9.59v-1h2m3-3H29v4a4,4,0,0,0,.22,1.34,4.05,4.05,0,0,0,2.46,2.46,4,4,0,0,0,1.34.22,4,4,0,0,0,3.79-2.68,4,4,0,0,0,.23-1.34v-4Z"/><path class="cls-1" d="M35.65,7H30.4V9.59a2.58,2.58,0,0,0,.15.88,2.64,2.64,0,0,0,1.6,1.6,2.63,2.63,0,0,0,1.75,0,2.68,2.68,0,0,0,1.61-1.6,2.84,2.84,0,0,0,.14-.88V7Z"/><path class="cls-1" d="M34.26,8.36H31.79V9.59a1.16,1.16,0,0,0,.07.42,1.26,1.26,0,0,0,.75.75,1.16,1.16,0,0,0,.42.07,1.14,1.14,0,0,0,.41-.07,1.26,1.26,0,0,0,.75-.75,1.16,1.16,0,0,0,.07-.42V8.36Z"/><path class="cls-1" d="M9.59,3a6.52,6.52,0,0,1,2.2.38,6.64,6.64,0,0,1,4,4,6.53,6.53,0,0,1,0,4.39,6.67,6.67,0,0,1-4,4,6.52,6.52,0,0,1-2.2.38H3V3H9.59m0-3H0V19.19H9.59A9.59,9.59,0,0,0,12.79.55,9.39,9.39,0,0,0,9.59,0Z"/><path class="cls-1" d="M9.59,4.39a5.14,5.14,0,0,1,1.74.3A5.26,5.26,0,0,1,14.5,7.86a5.07,5.07,0,0,1,.29,1.73,5.13,5.13,0,0,1-.29,1.74,5.29,5.29,0,0,1-3.17,3.17,5.13,5.13,0,0,1-1.74.29H4.39V4.39h5.2m0-3H1.39v16.4h8.2a8.21,8.21,0,0,0,2.74-.46,8.3,8.3,0,0,0,5-5,8.36,8.36,0,0,0,0-5.47,8.3,8.3,0,0,0-5-5,8.22,8.22,0,0,0-2.74-.47Z"/><path class="cls-1" d="M9.59,5.79A3.85,3.85,0,0,1,10.86,6a4,4,0,0,1,2.33,2.32,3.93,3.93,0,0,1,.21,1.27,3.85,3.85,0,0,1-.21,1.27,3.94,3.94,0,0,1-2.33,2.33,3.85,3.85,0,0,1-1.27.21H5.79V5.79h3.8m0-3H2.79V16.4h6.8A6.69,6.69,0,0,0,11.86,16,6.83,6.83,0,0,0,16,11.86a6.69,6.69,0,0,0,.39-2.27A6.77,6.77,0,0,0,16,7.32a6.85,6.85,0,0,0-4.15-4.15,6.93,6.93,0,0,0-2.27-.38Z"/><path class="cls-1" d="M9.59,7.18a2.42,2.42,0,0,1,2.28,1.61,2.4,2.4,0,0,1,.14.8A2.42,2.42,0,0,1,9.59,12H7.18V7.18H9.59m0-3H4.18V15H9.59a5.55,5.55,0,0,0,1.81-.31,5.45,5.45,0,0,0,3.3-3.3A5.55,5.55,0,0,0,15,9.59a5.42,5.42,0,0,0-3.61-5.1,5.3,5.3,0,0,0-1.81-.31Z"/><path class="cls-1" d="M9.59,8.57a1,1,0,0,1,.35.06,1.08,1.08,0,0,1,.62.62,1,1,0,0,1,0,.34.93.93,0,0,1,0,.34,1.1,1.1,0,0,1-.62.63,1,1,0,0,1-.35,0h-1v-2h1m0-3h-4v8h4a4,4,0,0,0,1.34-.22,4.05,4.05,0,0,0,2.46-2.46,4,4,0,0,0,.22-1.34A4,4,0,0,0,10.93,5.8a4,4,0,0,0-1.34-.23Z"/><path class="cls-1" d="M9.59,7H7v5.25H9.59a2.58,2.58,0,0,0,.88-.15,2.64,2.64,0,0,0,1.6-1.6,2.63,2.63,0,0,0,0-1.75,2.68,2.68,0,0,0-1.6-1.61A2.84,2.84,0,0,0,9.59,7Z"/><path class="cls-1" d="M9.59,8.36H8.36v2.47H9.59a1.16,1.16,0,0,0,.42-.07,1.26,1.26,0,0,0,.75-.75,1.16,1.16,0,0,0,.07-.42,1.14,1.14,0,0,0-.07-.41A1.26,1.26,0,0,0,10,8.43a1.16,1.16,0,0,0-.42-.07Z"/><path class="cls-1" d="M9.59,26.46a6.52,6.52,0,0,1,2.2.38,6.67,6.67,0,0,1,4,4,6.52,6.52,0,0,1,.38,2.2v6.59H3V33.06a6.52,6.52,0,0,1,.38-2.2,6.64,6.64,0,0,1,4-4,6.51,6.51,0,0,1,2.19-.38m0-3a9.6,9.6,0,0,0-9,6.4A9.44,9.44,0,0,0,0,33.06v9.59H19.19V33.06a9.69,9.69,0,0,0-.55-3.2,9.6,9.6,0,0,0-9-6.4Z"/><path class="cls-1" d="M9.59,27.86a5.38,5.38,0,0,1,1.74.29,5.29,5.29,0,0,1,3.17,3.17,5.13,5.13,0,0,1,.29,1.74v5.2H4.39v-5.2a5.14,5.14,0,0,1,.3-1.74,5.26,5.26,0,0,1,3.17-3.17,5.32,5.32,0,0,1,1.73-.29m0-3a8.2,8.2,0,0,0-2.73.46,8.3,8.3,0,0,0-5,5,8.22,8.22,0,0,0-.47,2.74v8.2h16.4v-8.2a8.21,8.21,0,0,0-.46-2.74,8.3,8.3,0,0,0-5-5,8.21,8.21,0,0,0-2.74-.46Z"/><path class="cls-1" d="M9.59,29.25a3.61,3.61,0,0,1,1.27.22,3.9,3.9,0,0,1,2.33,2.32,3.85,3.85,0,0,1,.21,1.27v3.8H5.79v-3.8A3.85,3.85,0,0,1,6,31.79a3.91,3.91,0,0,1,2.32-2.32,3.69,3.69,0,0,1,1.27-.22m0-3a6.77,6.77,0,0,0-2.27.39,6.77,6.77,0,0,0-4.53,6.42v6.8H16.4v-6.8A6.69,6.69,0,0,0,16,30.79a6.85,6.85,0,0,0-4.15-4.15,6.69,6.69,0,0,0-2.27-.39Z"/><path class="cls-1" d="M9.59,30.64A2.42,2.42,0,0,1,12,33.06v2.41H7.18V33.06a2.42,2.42,0,0,1,1.61-2.28,2.4,2.4,0,0,1,.8-.14m0-3a5.42,5.42,0,0,0-5.1,3.61,5.3,5.3,0,0,0-.31,1.81v5.41H15V33.06a5.55,5.55,0,0,0-.31-1.81A5.45,5.45,0,0,0,11.4,28a5.55,5.55,0,0,0-1.81-.31Z"/><path class="cls-1" d="M9.59,32a.93.93,0,0,1,.34.05,1.09,1.09,0,0,1,.63.63.93.93,0,0,1,0,.34v1h-2v-1a.93.93,0,0,1,.06-.34,1.07,1.07,0,0,1,.62-.63A1,1,0,0,1,9.59,32m0-3a4,4,0,0,0-4,4v4h8v-4a4,4,0,0,0-.22-1.34,4.05,4.05,0,0,0-2.46-2.46A4,4,0,0,0,9.59,29Z"/><path class="cls-1" d="M9.59,30.43a2.57,2.57,0,0,0-.87.15,2.68,2.68,0,0,0-1.61,1.6,2.84,2.84,0,0,0-.14.88v2.62h5.25V33.06a2.58,2.58,0,0,0-.15-.88,2.64,2.64,0,0,0-1.6-1.6,2.58,2.58,0,0,0-.88-.15Z"/><path class="cls-1" d="M9.59,31.82a1.41,1.41,0,0,0-.41.07,1.26,1.26,0,0,0-.75.75,1.16,1.16,0,0,0-.07.42v1.23h2.47V33.06a1.16,1.16,0,0,0-.07-.42,1.26,1.26,0,0,0-.75-.75,1.42,1.42,0,0,0-.42-.07Z"/><path class="cls-1" d="M39.62,26.46V39.65H33a6.77,6.77,0,0,1-2.2-.37,6.61,6.61,0,0,1-4.4-6.22,6.52,6.52,0,0,1,.38-2.2,6.64,6.64,0,0,1,4-4,6.52,6.52,0,0,1,2.2-.38h6.59m3-3H33a9.59,9.59,0,0,0-3.2,18.64,9.39,9.39,0,0,0,3.2.55h9.59V23.46Z"/><path class="cls-1" d="M38.23,27.86v10.4H33a5.14,5.14,0,0,1-1.74-.3,5.26,5.26,0,0,1-3.17-3.17,5.07,5.07,0,0,1-.29-1.73,5.13,5.13,0,0,1,.29-1.74,5.29,5.29,0,0,1,3.17-3.17A5.38,5.38,0,0,1,33,27.86h5.2m3-3H33a8.21,8.21,0,0,0-2.74.46,8.3,8.3,0,0,0-5,5,8.36,8.36,0,0,0,0,5.47,8.3,8.3,0,0,0,5,5,8.22,8.22,0,0,0,2.74.47h8.2V24.86Z"/><path class="cls-1" d="M36.83,29.25v7.61H33a3.85,3.85,0,0,1-1.27-.21,3.76,3.76,0,0,1-2.54-3.59,3.85,3.85,0,0,1,.21-1.27,3.9,3.9,0,0,1,2.33-2.32A3.61,3.61,0,0,1,33,29.25h3.8m3-3H33a6.69,6.69,0,0,0-2.27.39,6.85,6.85,0,0,0-4.15,4.15,6.8,6.8,0,0,0,0,4.54,6.85,6.85,0,0,0,4.15,4.15,6.93,6.93,0,0,0,2.27.38h6.8V26.25Z"/><path class="cls-1" d="M35.44,30.64v4.83H33a2.23,2.23,0,0,1-.81-.14,2.46,2.46,0,0,1-1.47-1.47,2.36,2.36,0,0,1-.14-.8A2.42,2.42,0,0,1,33,30.64h2.41m3-3H33a5.55,5.55,0,0,0-1.81.31,5.45,5.45,0,0,0-3.3,3.3,5.55,5.55,0,0,0-.31,1.81,5.42,5.42,0,0,0,3.61,5.1,5.3,5.3,0,0,0,1.81.31h5.41V27.64Z"/><path class="cls-1" d="M34.05,32v2H33a1,1,0,0,1-.35-.06,1.08,1.08,0,0,1-.62-.62,1,1,0,0,1-.05-.34.93.93,0,0,1,.05-.34,1.1,1.1,0,0,1,.62-.63A1,1,0,0,1,33,32h1m3-3H33a4,4,0,0,0-1.34.22,4.05,4.05,0,0,0-2.46,2.46A4,4,0,0,0,29,33.06a4,4,0,0,0,4,4h4V29Z"/><path class="cls-1" d="M35.65,30.43H33a2.58,2.58,0,0,0-.88.15,2.64,2.64,0,0,0-1.6,1.6,2.63,2.63,0,0,0,0,1.75,2.68,2.68,0,0,0,1.6,1.61,2.84,2.84,0,0,0,.88.14h2.62V30.43Z"/><path class="cls-1" d="M34.26,31.82H33a1.42,1.42,0,0,0-.42.07,1.25,1.25,0,0,0-.75.76,1.07,1.07,0,0,0-.07.41,1.14,1.14,0,0,0,.07.41,1.26,1.26,0,0,0,.75.75,1.16,1.16,0,0,0,.42.07h1.23V31.82Z"/></g></g></svg>