<?xml version="1.0" encoding="utf-8"?>
<!-- Generator: Adobe Illustrator 24.0.3, SVG Export Plug-In . SVG Version: 6.00 Build 0)  -->
<svg version="1.1" id="Layer_1" xmlns="http://www.w3.org/2000/svg" xmlns:xlink="http://www.w3.org/1999/xlink" x="0px" y="0px"
	 viewBox="0 0 612 792" style="enable-background:new 0 0 612 792;" xml:space="preserve">
<style type="text/css">
	.st0{fill:#0EB1E7;stroke:#000000;stroke-width:6;stroke-miterlimit:10;}
	.st1{font-family:'MyriadPro-Regular';}
	.st2{font-size:27.4068px;}
</style>
<g>
	<circle class="st0" cx="312.1" cy="418.9" r="244.2"/>
	<path class="st0" d="M312.1,296.8c0-67.4,0-122.1,0-122.1S312.1,229.4,312.1,296.8s0,122.1,0,122.1S312.1,364.2,312.1,296.8z"/>
	<path class="st0" d="M206.3,357.8c-58.4-33.7-105.7-61-105.7-61S148,324.1,206.3,357.8s105.7,61,105.7,61S264.7,391.5,206.3,357.8z
		"/>
	<path class="st0" d="M206.3,479.9c-58.4,33.7-105.7,61-105.7,61S148,513.6,206.3,479.9s105.7-61,105.7-61S264.7,446.2,206.3,479.9z
		"/>
	<path class="st0" d="M312.1,540.9c0,67.4,0,122.1,0,122.1S312.1,608.4,312.1,540.9s0-122.1,0-122.1S312.1,473.5,312.1,540.9z"/>
	<path class="st0" d="M417.8,479.9c58.4,33.7,105.7,61,105.7,61S476.2,513.6,417.8,479.9s-105.7-61-105.7-61
		S359.4,446.2,417.8,479.9z"/>
	<path class="st0" d="M417.8,357.8c58.4-33.7,105.7-61,105.7-61S476.2,324.1,417.8,357.8s-105.7,61-105.7,61
		S359.4,391.5,417.8,357.8z"/>
</g>
<text transform="matrix(1 0 0 1 171.001 296.8)" class="st1 st2">Empathize</text>
<text transform="matrix(1 0 0 1 90.1833 401.0441)" class="st1 st2">Define</text>
<text transform="matrix(1 0 0 1 370.1833 296.7999)" class="st1 st2">Test</text>
<text transform="matrix(1 0 0 1 448.1833 401.0447)" class="st1 st2">Ideate</text>
<text transform="matrix(1 0 0 1 158.1833 562.0441)" class="st1 st2">Prototype</text>
<text transform="matrix(1 0 0 1 334.1833 562.0443)" class="st1 st2">Mindest</text>
</svg>
