<?xml version="1.0" encoding="utf-8"?>
<!-- Generator: Adobe Illustrator 24.0.3, SVG Export Plug-In . SVG Version: 6.00 Build 0)  -->
<svg version="1.1" id="Layer_1" xmlns="http://www.w3.org/2000/svg" xmlns:xlink="http://www.w3.org/1999/xlink" x="0px" y="0px"
	 viewBox="0 0 612 792" style="enable-background:new 0 0 612 792;" xml:space="preserve">
<style type="text/css">
	.st0{fill:#0EB1E7;stroke:#000000;stroke-width:6;stroke-miterlimit:10;}
	.st1{font-family:'MyriadPro-Regular';}
	.st2{font-size:27.4068px;}
	.st3{font-size:27.4077px;}
</style>
<g>
	<circle class="st0" cx="306" cy="396" r="244.2"/>
	<path class="st0" d="M306,273.9c0-67.4,0-122.1,0-122.1S306,206.5,306,273.9s0,122.1,0,122.1S306,341.3,306,273.9z"/>
	<path class="st0" d="M200.2,334.9c-58.4-33.7-105.7-61-105.7-61S141.9,301.2,200.2,334.9s105.7,61,105.7,61
		S258.6,368.6,200.2,334.9z"/>
	<path class="st0" d="M200.2,457c-58.4,33.7-105.7,61-105.7,61S141.9,490.7,200.2,457s105.7-61,105.7-61S258.6,423.3,200.2,457z"/>
	<path class="st0" d="M306,518c0,67.4,0,122.1,0,122.1S306,585.5,306,518s0-122.1,0-122.1S306,450.6,306,518z"/>
	<path class="st0" d="M411.7,457c58.4,33.7,105.7,61,105.7,61S470.1,490.7,411.7,457S306,396,306,396S353.3,423.3,411.7,457z"/>
	<path class="st0" d="M411.7,334.9c58.4-33.7,105.7-61,105.7-61S470.1,301.2,411.7,334.9s-105.7,61-105.7,61
		S353.3,368.6,411.7,334.9z"/>
</g>
<text transform="matrix(-0.5409 -0.8411 0.8411 -0.5409 265.9372 311.106)" class="st1 st2">Empathize</text>
<text transform="matrix(-1 0 0 -1 177.6846 379.7207)" class="st1 st2">Define</text>
<text transform="matrix(0.6425 -0.7663 0.7663 0.6425 371.9731 296.825)" class="st1 st2">Test</text>
<text transform="matrix(1 0 0 1 423.4787 395.9002)" class="st1 st2">Ideate</text>
<text transform="matrix(-0.5223 0.8528 -0.8528 -0.5223 255.0252 471.8)" class="st1 st3">Prototype</text>
<text transform="matrix(0.5224 0.8527 -0.8527 0.5224 344.8289 494.5233)" class="st1 st2">Mindest</text>
</svg>
